<?xml version="1.0" encoding="UTF-8"?>
<svg width="28px" height="28px" viewBox="0 0 28 28" version="1.1" xmlns="http://www.w3.org/2000/svg" xmlns:xlink="http://www.w3.org/1999/xlink">
    <!-- Generator: sketchtool 57.1 (101010) - https://sketch.com -->
    <title>DF6175A2-6E32-431F-B781-882237CAD6AF</title>
    <desc>Created with sketchtool.</desc>
    <g id="Symbols" stroke="none" stroke-width="1" fill="none" fill-rule="evenodd">
        <g id="_UI-/3.-Components/Footer" transform="translate(-64.000000, -188.000000)">
            <g id="FOOTER">
                <g id="Links" transform="translate(24.000000, 40.000000)">
                    <g id="Col1">
                        <g id="Group-2" transform="translate(0.000000, 148.000000)">
                            <g id="_UI-/1.-Atomes-/-Icons-/-28x28-/-icon-fb/Iddle" transform="translate(40.000000, 0.000000)">
                                <path d="M14,0 C6.28016667,0 0,6.28016667 0,14 C0,21.7198333 6.28016667,28 14,28 C21.7198333,28 28,21.7198333 28,14 C28,6.28016667 21.7198333,0 14,0 L14,0 Z" id="icon-fb" fill="#29B6F6"></path>
                                <path d="M18.1941667,13.4166667 L15.75,13.4166667 L15.75,21.5833333 L12.25,21.5833333 L12.25,13.4166667 L9.91666667,13.4166667 L9.91666667,11.0833333 L12.25,11.0833333 L12.25,9.72533333 C12.25,8.44316667 12.6606667,6.43766667 15.3416667,6.43766667 L18.0833333,6.44466667 L18.0833333,9.135 L16.4406667,9.135 C16.156,9.135 15.75,9.27966667 15.75,9.88983333 L15.75,11.0833333 L18.4788333,11.0833333 L18.1941667,13.4166667 Z" id="Path" fill="#FFFFFF"></path>
                            </g>
                        </g>
                    </g>
                </g>
            </g>
        </g>
    </g>
</svg>