<svg xmlns="http://www.w3.org/2000/svg" width="28" height="28" viewBox="0 0 28 28">
    <path fill="#C8C7CC" fill-rule="nonzero" d="M12.759.051c2.114-.19 4.432.154 6.422.95 2.662 1.059 4.834 2.82 6.443 5.208 3.73 5.536 3.006 12.95-1.733 17.676-2.875 2.878-6.978 4.405-10.92 4.07-2.56-.22-4.754-.972-6.78-2.338-3.306-2.22-5.449-5.603-6.07-9.584-.161-1.015-.161-3.06 0-4.076.475-3.046 1.82-5.726 3.956-7.86A13.999 13.999 0 0 1 12.76.052zM10.57 12.286H8V20h2.571v-7.714zm4.145 0h-1.174c-.649 0-1.198.016-1.216.039-.023.016-.04 1.753-.04 3.857V20h2.419l.029-2.375c.023-2.559.034-2.647.335-2.98.25-.272.614-.389 1.21-.389.55.006.781.089.972.344.212.287.24.495.243 2.571V20H20l-.035-2.68c-.023-1.471-.064-2.809-.093-2.97-.266-1.393-.937-1.959-2.407-2.048-1.053-.06-1.898.211-2.454.794l-.295.31v-1.12zm-4.893-4.18a1.36 1.36 0 0 0-1.092.016c-1.065.489-.937 2.034.192 2.365.154.048.32.084.367.084.048 0 .213-.037.368-.084a1.267 1.267 0 0 0 .783-1.781c-.15-.316-.299-.458-.618-.6z"/>
</svg>
