<?xml version="1.0" encoding="UTF-8"?>
<svg width="28px" height="28px" viewBox="0 0 28 28" version="1.1" xmlns="http://www.w3.org/2000/svg" xmlns:xlink="http://www.w3.org/1999/xlink">
    <!-- Generator: sketchtool 57.1 (101010) - https://sketch.com -->
    <title>513C1A94-6BDB-4041-881B-6A69E585B789</title>
    <desc>Created with sketchtool.</desc>
    <g id="Symbols" stroke="none" stroke-width="1" fill="none" fill-rule="evenodd">
        <g id="_UI-/3.-Components/Footer" transform="translate(-104.000000, -188.000000)" fill-rule="nonzero">
            <g id="FOOTER">
                <g id="Links" transform="translate(24.000000, 40.000000)">
                    <g id="Col1">
                        <g id="Group-2" transform="translate(0.000000, 148.000000)">
                            <g id="_UI-/1.-Atomes-/-Icons-/-28x28-/-icon-linkedin/Iddle" transform="translate(80.000000, 0.000000)">
                                <path d="M12.7588953,27.9488746 C9.48233244,27.6640999 6.41034044,26.2322367 4.07748938,23.9021062 C1.94178066,21.7691493 0.596069876,19.0886147 0.120642543,16.0425526 C-0.0402141809,15.0272936 -0.0402141809,12.9819378 0.120642543,11.9666789 C0.742355209,7.98582528 2.88520677,4.60391164 6.19119816,2.38335376 C8.21719288,1.01740534 10.4111872,0.264949534 12.9711805,0.0458042689 C16.9131702,-0.290047263 21.0163024,1.23655061 23.8905806,4.11454428 C28.6299968,8.84043474 29.353995,16.2545642 25.6240047,21.7911209 C24.014866,24.1797472 21.8428717,25.940043 19.1805929,26.9992451 C17.1911695,27.7953588 14.8726041,28.1386293 12.7588953,27.9488746 Z" id="icon-linkedin" fill="#29B6F6" transform="translate(14.000000, 14.000000) scale(1, -1) translate(-14.000000, -14.000000) "></path>
                                <path d="M9.81890299,11.613843 L9.81890299,21.7670029 L6.74691099,21.7670029 L6.74691099,11.613843 L9.81890299,11.613843 Z M14.8654613,11.613843 L14.8654613,13.089364 L15.2383174,12.6804641 C15.9406013,11.9134557 17.0083128,11.5556325 18.3394522,11.6358146 C20.1971617,11.7528062 21.0454452,12.497843 21.3820157,14.3311872 C21.4185871,14.5429135 21.4697298,16.3034946 21.4991583,18.2389924 L21.5431582,21.7670029 L18.3763093,21.7670029 L18.3760132,18.043982 C18.3726761,15.3114983 18.337028,15.037322 18.0691672,14.6599051 C17.8277393,14.3240536 17.5351686,14.2144809 16.8403133,14.207062 C16.0868867,14.207062 15.6263164,14.3605778 15.3117458,14.7184009 C14.9314611,15.1566914 14.9168897,15.2736831 14.8874612,18.6407587 L14.8508899,21.7670029 L11.793755,21.7670029 L11.793755,16.7414998 C11.793755,13.9730787 11.8157549,11.6868914 11.8448977,11.6649198 C11.8668977,11.6355292 12.561753,11.613843 13.3808937,11.613843 L14.8654613,11.613843 Z M9.01433366,6.14810703 C9.45318966,6.3452807 9.65804627,6.54245437 9.86261716,6.9807449 C10.3380445,7.98145121 9.83347438,9.15022595 8.78747711,9.45697225 C8.57547766,9.52260169 8.34862111,9.57396387 8.28290699,9.57396387 C8.21719288,9.57396387 7.99033633,9.52288704 7.77833688,9.45697225 C6.22776949,8.99671013 6.05234138,6.84920067 7.51519471,6.17007863 C7.98319349,5.95093336 8.56090627,5.94351438 9.01433366,6.14810703 Z" id="Shape" fill="#FFFFFF"></path>
                            </g>
                        </g>
                    </g>
                </g>
            </g>
        </g>
    </g>
</svg>