<?xml version="1.0" encoding="UTF-8"?>
<svg width="28px" height="28px" viewBox="0 0 28 28" version="1.1" xmlns="http://www.w3.org/2000/svg" xmlns:xlink="http://www.w3.org/1999/xlink">
    <!-- Generator: sketchtool 57.1 (101010) - https://sketch.com -->
    <title>B1A79B32-63AA-4413-97C8-F5DDF1E59B57</title>
    <desc>Created with sketchtool.</desc>
    <g id="Symbols" stroke="none" stroke-width="1" fill="none" fill-rule="evenodd">
        <g id="_UI-/3.-Components/Footer" transform="translate(-24.000000, -188.000000)">
            <g id="FOOTER">
                <g id="Links" transform="translate(24.000000, 40.000000)">
                    <g id="Col1">
                        <g id="Group-2" transform="translate(0.000000, 148.000000)">
                            <g id="_UI-/1.-Atomes-/-Icons-/-28x28-/-icon-twitter/Iddle">
                                <path d="M14,0 C6.28016667,0 0,6.28016667 0,14 C0,21.7198333 6.28016667,28 14,28 C21.7198333,28 28,21.7198333 28,14 C28,6.28016667 21.7198333,0 14,0" id="icon-twitter" fill="#29B6F6"></path>
                                <path d="M20.139,10.9491667 C20.146,11.081 20.1483333,11.2128333 20.1483333,11.3458333 C20.1483333,15.4035 17.059,20.0841667 11.4111667,20.0841667 C9.6775,20.0841667 8.06283333,19.5743333 6.70366667,18.7028333 C8.30666667,18.8906667 9.93766667,18.4613333 11.2501667,17.4323333 C9.90616667,17.4066667 8.77333333,16.5188333 8.3825,15.2985 C8.8445,15.386 9.31933333,15.3696667 9.7685,15.246 C8.36383333,14.9648333 7.30566667,13.7235 7.30566667,12.2371667 L7.30566667,12.1963333 C7.71983333,12.4261667 8.19466667,12.5638333 8.69633333,12.5801667 C7.87266667,12.0295 7.33016667,11.0903333 7.33016667,10.0251667 C7.33016667,9.46283333 7.48183333,8.9355 7.74666667,8.4805 C9.261,10.339 11.5231667,11.5628333 14.0758333,11.6888333 C14.0233333,11.4648333 13.9953333,11.2291667 13.9953333,10.99 C13.9953333,9.29366667 15.3708333,7.91816667 17.0671667,7.91816667 C17.9503333,7.91816667 18.7483333,8.2915 19.3083333,8.88883333 C20.0083333,8.75 21.5833333,8.57966667 21.5833333,8.57966667 C21.1726667,9.19566667 20.7398333,10.5151667 20.139,10.9491667" id="Path" fill="#FFFFFF"></path>
                            </g>
                        </g>
                    </g>
                </g>
            </g>
        </g>
    </g>
</svg>