<svg xmlns="http://www.w3.org/2000/svg" width="1440" height="492" viewBox="0 0 1440 492">
    <g fill="none" fill-rule="evenodd">
        <path fill="#F5F5F5" d="M1367.208.446L1406 416.723c0 26.552-13.208 48.022-36.238 58.885-10.194 4.827-21.623 7.259-33.961 7.259-15.358 0-31.804-3.936-47.713-11.455l-447.45-224.338-151.282 60.873-1.414.58-7.838-.032c-32.475-.098-56.733-27.534-56.733-51.99L596 0l771.208.446z"/>
        <path fill="#C8C7CC" fill-opacity=".55" d="M150.997 126.297l-12.027 15.96-18.896-6.506.35-19.982 19.11-5.843zM371.326 347.448l.738 14.088-13.17 5.055-8.878-10.963 7.684-11.831zM1158.88 98.037l7.054 12.217-9.44 10.484-12.886-5.738 1.474-14.03zM1018.874 306.526l1.415 27-25.242 9.69-17.015-21.012 14.726-22.676z" opacity=".5"/>
    </g>
</svg>
