<svg xmlns="http://www.w3.org/2000/svg" width="1440" height="492" viewBox="0 0 1440 492">
    <g fill="none" fill-rule="evenodd">
        <path fill="#F5F5F5" d="M616.792.446l-88.25 316.742c0 26.552 13.207 48.023 36.237 58.886 10.194 4.826 21.623 7.258 33.961 7.258 15.358 0 31.804-3.936 47.713-11.454l496.909-124.804 151.282 60.873 1.414.58 7.838-.032c32.475-.098 56.733-27.534 56.733-51.99L1388 0 616.792.446z"/>
        <path fill="#29B6F6" fill-opacity=".4" d="M188.997 208.297l-12.027 15.96-18.896-6.506.35-19.982 19.11-5.843z" opacity=".5"/>
        <path fill="#29B6F6" d="M895.88 116.037l7.054 12.217-9.44 10.484L880.609 133l1.474-14.03z" opacity=".5"/>
    </g>
</svg>
