<svg xmlns="http://www.w3.org/2000/svg" xmlns:xlink="http://www.w3.org/1999/xlink" width="300" height="300" style="background:#fbfbfb" viewBox="0 0 300 300">
    <defs>
        <path id="a" d="M288.634-.001l-11.355 24.13L300 34.126v2.152l-.011.028-23.56-10.367-11.322 24.06 11.423 24.276 23.183-10.664.287.132v2.202l-.286-.132-22.332 10.272 11.728 24.924-11.305 23.079 21.908 10.515.287-.138v2.218l-.287.138-22.763-10.988-11.84 24.175 11.962 25.418L300 165.338v2.185l-22.076 9.713 11.186 23.768-11.604 24.173L300 235.074v2.185l-23.36-10.278L265.111 251l11.764 24.512L300 265.338v2.185l-22.258 9.793 10.887 22.683h-2.218l-10.5-21.877-24.611 10.83v11.047h-2V288.95l-25.497-11.218-10.242 22.267h-27.15l-10.5-21.877-24.61 10.83v11.047h-2.002v-11.216l-25.432-11.189-10.306 22.405h-2.2l10.676-23.21L100 267.093l-22.868 10.061 10.51 22.845h-2.202l-10.138-22.04L51 288.652v11.347h-2v-11.18l-25.196-11.086-10.243 22.266h-2.2l10.612-23.072-21.668-9.533-.305.135v-2.193l.296-.132 22.513 9.906L33.9 250.999l-10.863-23.613L.295 237.393l-.296-.133v-2.192l.305.137 21.896-9.636-11.3-24.565 10.893-24.155-21.49-9.455-.304.135v-2.193l.296-.132 22.321 9.822L33.9 150.009l-11.176-23.811L0 137.106v-2.219H0l21.868-10.511L10.9 101.008l11.16-24.746-22.06-10.163v-2.203l22.887 10.529 11.016-24.426-10.734-23.802L.196 36.306 0 35.859v-1.652l22.347-9.833L11.353-.001h2.194l10.63 23.57L49 12.647V-.001h2v12.83l23.53 10.353L84.862-.001h2.185L76.312 23.967l23.61 10.387 22.88-10.068L111.95-.001h2.188l10.474 23.491L149 12.76V-.001h2v12.509l24.471 10.767L186.424-.001h2.21l-11.333 24.082 23.156 10.188 21.987-9.675-11.09-24.595h2.193l10.73 23.789 24.722-10.878V-.001h2v12.567l24.448 10.757L286.424-.001h2.21zM200.3 267.392l-22.559 9.925 10.887 22.682h22.731l10.613-23.072-21.672-9.535zM263.37 252h-27.73l-11.002 23.916 25.66 11.29 24.745-10.888L263.37 252zm-100 0h-27.73l-10.938 23.777 25.7 11.308-.042.094 24.683-10.861L163.37 252zM50.488 215.307l-25.62 11.273L36.1 251l-11.463 24.916 25.171 11.075 24.656-10.849L62.9 251l11.565-25.143-23.976-10.55zm130.364 13.361l-15.698 22.425 11.721 24.419L199 265.778v-29.126l-18.147-7.984zm-104.558-2.006l-11.193 24.337 11.194 24.337L99 265.347v-28.695l-22.705-9.99zm141.744 2.493L201 236.652v28.862l21.81 9.596 11.038-23.998-15.809-21.957zm-95.165-2.128L101 236.652v28.695l21.873 9.624 11.029-23.972-11.028-23.972zm126.936-11.851l-29.898 13.155L235.512 250h27.858l11.436-23.825-24.997-10.999zm-99.81-.084l-25.297 11.13L135.64 250h27.84l15.506-22.153L150 215.092zm-38.638-13.093H87.64l-10.51 22.846L100 234.908l22.038-9.698-10.677-23.211zm87.65.728l-16.99 24.27 17.979 7.91 16.843-7.411-17.833-24.769zm19.018-27.702l-18.069 25.598 18.756 26.049 30.582-13.456v-24.433l-31.269-13.758zm-37.207.505L151 188.652v24.695l29.156 12.829 17.888-25.553-17.22-25.093zm-157.198 2.124l-10.526 23.343 10.933 23.766L49 213.777v-24.958l-25.375-11.165zm100.06-.141l-10.588 23.479 10.771 23.413L149 213.347v-24.695l-25.315-11.139zm152.407.529l-24.792 10.91v24.695l24.373 10.724 11.222-23.376-10.803-22.953zm-200.617-.159L51 188.652v24.695L75.3 224.04 85.9 201l-10.426-23.117zM100 167.093l-22.695 9.984L87.641 200h23.71l10.502-23.292L100 167.093zm100-.001l-17.315 7.618 16.326 23.79 17.15-24.297L200 167.092zm49-54.75l-24.632 11.903 11.784 25.106-16.969 24.039 31.177 13.789 24.88-10.947-12.35-26.24 12.258-25.028L249 112.341zM63.35 151H35.645L24.446 175.83l25.363 11.16 24.843-10.932-11.302-25.06zm100.637 0h-28.346l-11.135 24.691L150 186.907l29.671-13.056L163.987 151zm-90.349-12.778l-8.492 11.891 11.336 25.141 22.16-9.75-25.004-27.282zm52.255 1.076l-24.508 26.219 21.291 9.368 11.169-24.764-7.952-10.823zm50.848-13.789l-11.587 23.657 16.38 23.866 17.465-7.685v-29.155l-22.258-10.683zm45.826-.393L201 135.541v29.806l16.318 7.218 16.53-23.416-11.28-24.033zm-123.56-22.411l-24.074 33.703L100 164l24.675-26.359-25.667-34.936zM50.43 112.899l-25.904 12.434L35.634 149h27.848l8.774-12.286-21.826-23.815zm100.11.034l-23.258 24.879 8.22 11.188h27.506l11.93-24.356-24.398-11.711zm-32.495-38.376l-18.297 25.778 26.317 35.821 23.671-25.284V89.134l-31.69-14.577zm-37.23.664l-29.08 13.377.002 22.274 21.82 24.021 24.688-34.564-17.43-25.108zm130.55 26.029h-22.742l-11.003 22.463 21.542 10.34 22.524-10.813-10.322-21.99zM23.874 77.099L13.1 100.992l10.57 22.518 25.83-12.414v-22.19L23.875 77.099zm251.69-.179l-25.239 11.609-.165 22.289 25.841 12.404 10.89-22.231-11.328-24.071zm-99.677.69l-24.153 11.11v22.568l24.082 11.559 10.893-22.238-10.822-22.999zm47.914-.349l-10.529 23.347 10.217 21.767 24.672-11.841V88.466l-24.36-11.205zm-23.577-10.846l-22.52 10.359 10.575 22.475h23.412l10.292-22.824-21.759-10.01zm-100.072-.089l-17.469 8.035 16.327 23.55 17.224-24.187-16.082-7.398zm63.212-15.327H134.77l-15.574 21.938 31.093 14.25L175.036 75.8l-11.67-24.802zm-127.719 0L24.704 75.261l25.62 11.785 29.332-13.494L64 51l-28.354-.001zm214.746-36.515l-25.294 11.128L236.097 50l-11.473 25.437 24.69 11.357 25.398-11.684L262.895 50l11.701-24.867-24.204-10.65zM176.449 25.89l-11.345 24.11 11.75 24.964 22.536-10.367V35.985l-22.94-10.094zm46.818.527l-21.875 9.626V64.75l21.415 9.85L233.901 50l-10.634-23.582zm-147.772-.626L65.101 49l16.426 23.692 17.265-7.941V36.044L75.495 25.792zm48.087.242L101 35.891v28.707l16.387 7.51L133.845 49l-10.263-22.966zm-73.79-11.55L25 25.392 35.645 49H63.02l10.694-23.992-23.92-10.524zm100.496-.104l-24.895 10.864L135.984 49h27.381l11.253-23.915-24.33-10.705z"/>
    </defs>
    <g fill="none" fill-rule="evenodd">
        <path fill="#FBFBFB" d="M0 0h300v300H0z"/>
        <use fill="#F6F6F6" xlink:href="#a"/>
    </g>
</svg>
