<svg xmlns="http://www.w3.org/2000/svg" viewBox="0 0 833.33 172.82"><defs><style>.cls-1{fill:#0792d0;}.cls-2{fill:#e50046;}</style></defs><title>Logo_Cegedim.Cloud_CMJN</title><g id="Mode_Isolation" data-name="Mode Isolation"><path d="M50.5,121.32c-9.39,0-17.39-3.18-23.14-9.19-5.48-5.73-8.5-13.8-8.5-22.72,0-18.79,13-31.91,31.63-31.91H51A29.48,29.48,0,0,1,73.27,68l.79.92-8.71,6.61-.68-1A16.29,16.29,0,0,0,51,67.3h-.5c-12.18,0-20.36,8.88-20.36,22.11s8.18,22.1,20.36,22.1H51a16.3,16.3,0,0,0,13.68-7.22l.68-1,8.71,6.6-.79.93A29.53,29.53,0,0,1,51,121.32Z"/><path class="cls-1" d="M560.47,121.32c-9.39,0-17.39-3.18-23.14-9.19-5.48-5.73-8.5-13.8-8.5-22.72,0-18.79,13-31.91,31.63-31.91H561A29.46,29.46,0,0,1,583.23,68L584,69l-8.71,6.61-.67-1A16.31,16.31,0,0,0,561,67.3h-.49c-12.18,0-20.37,8.88-20.37,22.11s8.19,22.1,20.37,22.1H561a16.3,16.3,0,0,0,13.68-7.22l.67-1,8.71,6.6-.79.93A29.51,29.51,0,0,1,561,121.32Z"/><path d="M107.62,121.32c-17.9,0-31.4-13.72-31.4-31.91S89.4,57.5,106.87,57.5C124,57.62,136,70.13,136,87.91v4.9H87.41c1.47,10.91,9.8,18.7,20.21,18.7a20.88,20.88,0,0,0,17.78-9.58l.7-1.12,8.26,6.8-.7.89C127,117,118.21,121.32,107.62,121.32ZM87.57,83.76H124.7c-.47-10.19-7.21-16.46-17.83-16.46C97.35,67.3,88.32,75.15,87.57,83.76Z"/><path d="M173.78,149.82c-12,0-21.22-3.85-29-12.12l-.74-.79,7.8-8.28.82,1.09A26.76,26.76,0,0,0,174.15,140c17.86,0,21.6-11.88,21.6-21.85v-7.39c-6.25,7.4-14.7,9-21,9-17.75,0-31.66-13.57-31.66-30.9C143.12,71,156.41,57.5,174,57.5A28.15,28.15,0,0,1,195.75,67V59h10.56v59.16C206.31,130,202.08,149.82,173.78,149.82ZM175,67.3c-11.36,0-20.61,9.58-20.61,21.36S163.67,110,175,110a21.5,21.5,0,0,0,15.48-6.4A19.86,19.86,0,0,0,196,88.7C196,76.08,187.38,67.3,175,67.3Z"/><path d="M247.47,121.32c-17.91,0-31.41-13.72-31.41-31.91S229.24,57.5,246.71,57.5c17.17.12,29.16,12.63,29.16,30.41v4.9H227.24c1.48,10.91,9.81,18.7,20.23,18.7a20.89,20.89,0,0,0,17.77-9.58l.69-1.12,8.26,6.8-.69.89C266.81,117,258.05,121.32,247.47,121.32ZM227.41,83.76h37.13c-.47-10.19-7.21-16.46-17.83-16.46C237.19,67.3,228.16,75.15,227.41,83.76Z"/><path d="M315.1,121.32c-18.7,0-32.27-13.42-32.27-31.91S296.4,57.5,315.1,57.5c6.54,0,15.77,2.51,21.86,9.39V23h10.55v96.81H337v-7.88C330.87,118.81,321.64,121.32,315.1,121.32Zm0-54c-12.34,0-21,9.09-21,22.11s8.63,22.1,21,22.1c12.68,0,22.24-9.5,22.24-22.1S327.78,67.3,315.1,67.3Z"/><path class="cls-1" d="M782.06,121.32c-18.71,0-32.28-13.42-32.28-31.91S763.35,57.5,782.06,57.5c6.53,0,15.76,2.51,21.85,9.39V23h10.56v96.81H803.91v-7.88C797.82,118.81,788.59,121.32,782.06,121.32Zm0-54c-12.35,0-21,9.09-21,22.11s8.63,22.1,21,22.1c12.67,0,22.23-9.5,22.23-22.1S794.73,67.3,782.06,67.3Z"/><path d="M368.61,44.8a7.15,7.15,0,1,1,7.15-7.15A7.25,7.25,0,0,1,368.61,44.8Z"/><path d="M373.89,119.81H363.34V59h10.55Z"/><path d="M479.29,119.81H468.73V84.53c0-12.4-3.81-17.23-13.6-17.23-13.86,0-15.35,14.15-15.35,20.23v32.28H429.23V84.53c0-12.4-3.81-17.23-13.6-17.23-.63,0-15.36.25-15.36,21.36v31.15H389.73V73.15c0-3.2-.21-6.27-.42-9.54-.07-1.12-.15-2.25-.21-3.39L389,59h11.24v6.8a24.06,24.06,0,0,1,18-8.3c6.22,0,14.29,1.92,18.72,10.65A22.61,22.61,0,0,1,456.13,57.5c15.15,0,23.16,8.31,23.16,24Z"/><path class="cls-1" d="M671.12,68.25a30.85,30.85,0,0,0-45.33.06,31.6,31.6,0,0,0,.46,42.86c5.73,6.16,13.21,9.29,22.23,9.29s16.45-3.12,22.19-9.29a31.65,31.65,0,0,0,.45-42.91Zm-2.25,21.47a21.41,21.41,0,0,1-2.76,10.6,19.42,19.42,0,0,1-7.39,7.54,21.14,21.14,0,0,1-20.53,0,19.51,19.51,0,0,1-7.39-7.55,21.34,21.34,0,0,1-2.75-10.59,20.57,20.57,0,0,1,6-15,19.76,19.76,0,0,1,28.73,0A20.53,20.53,0,0,1,668.87,89.72Z"/><path class="cls-1" d="M730.36,59.8V87.55c0,8.49-.55,11.91-1,13.28a13.29,13.29,0,0,1-5.23,6.89,16.17,16.17,0,0,1-9.38,2.64,16.48,16.48,0,0,1-9.54-2.72,13.12,13.12,0,0,1-5.31-7.31c-.64-2.25-1-6.55-1-12.78V59.8h-10.3V88.38c0,8.28.93,14.35,2.84,18.56a22.13,22.13,0,0,0,8.81,10c3.89,2.35,8.77,3.55,14.49,3.55s10.6-1.2,14.45-3.55A22.33,22.33,0,0,0,738,107c1.92-4.17,2.85-10.1,2.85-18.14V59.8Z"/><rect class="cls-1" x="598.01" y="23" width="10.55" height="96.81"/><path class="cls-2" d="M501.84,107h9.72a1.54,1.54,0,0,1,1.54,1.54v9.72a1.54,1.54,0,0,1-1.54,1.54h-9.72a1.54,1.54,0,0,1-1.54-1.54v-9.72A1.53,1.53,0,0,1,501.84,107Z"/></g></svg>