<?xml version="1.0" encoding="UTF-8"?>
<svg  width="92px" height="92px" viewBox="0 0 92 92" version="1.1" xmlns="http://www.w3.org/2000/svg" xmlns:xlink="http://www.w3.org/1999/xlink">
    <!-- Generator: sketchtool 57.1 (101010) - https://sketch.com -->
    <title>CCD6BB97-CADD-4C61-B074-8095D446AB83</title>
    <desc>Created with sketchtool.</desc>
    <defs >
        <filter id="dropshadow" height="170%">
            <feGaussianBlur in="SourceAlpha" stdDeviation="2.5"/> <!-- stdDeviation is how much to blur -->
            <feOffset dx="0" dy="0" result="offsetblur"/> <!-- how much to offset -->
            <feComponentTransfer>
                <feFuncA type="linear" slope="0.6"/> <!-- slope is the opacity of the shadow -->
            </feComponentTransfer>
            <feMerge>
                <feMergeNode/> <!-- this contains the offset blurred image -->
                <feMergeNode in="SourceGraphic"/> <!-- this contains the element that the filter is applied to -->
            </feMerge>
        </filter>
        <linearGradient x1="100%" y1="100%" x2="0%" y2="0%" id="linearGradient-1" >
            <stop stop-color="#F5F5F5" offset="0%"></stop>
            <stop stop-color="#FFFFFF" offset="100%" ></stop>
        </linearGradient>
        <polygon id="path-2" points="0.21279935 0.524522141 15.629815 0.524522141 15.629815 22.2002598 0.21279935 22.2002598"></polygon>
    </defs>
    <g id="Symbols" stroke="none" stroke-width="1" fill="none" fill-rule="evenodd">
        <g id="_DLS-/-AppIcon">
            <rect id="Rectangle" fill="url(#linearGradient-1)" x="4" y="4" width="84" height="84" rx="21" filter="url(#dropshadow)"></rect>
            <path d="M67,4 C77.6386522,4 86.4295985,11.9109695 87.8110984,22.1711682 C79.0569734,32.7101693 65.3116973,44.7048112 52.8830283,52.729603 C38.9253542,61.7416242 19.0529897,72.513963 5.84505989,75.6210843 C4.6597996,72.9906959 4,70.0724002 4,67 L4,25 C4,13.4020203 13.4020203,4 25,4 L67,4 Z" id="Combined-Shape" fill-opacity="0.7" fill="#FFFFFF" style="mix-blend-mode: lighten;"></path>
            <g id="Team'Doc-logo" transform="translate(20.000000, 12.000000)">
                <path d="M37.9064967,46.5300907 C37.9064967,47.3280578 38.4718677,47.649034 39.1690463,47.2475341 C39.866225,46.8460342 40.431596,45.8741585 40.431596,45.0767506 C40.431596,44.2793427 39.866225,43.9572481 39.1690463,44.358748 C38.4718677,44.7602479 37.9064967,45.7321237 37.9064967,46.5300907" id="Fill-17" fill="#29B6F6"></path>
                <path d="M32.116324,49.8628194 C32.116324,50.6607865 32.681695,50.9817627 33.3788736,50.5802628 C34.0760523,50.1787629 34.6414233,49.2068872 34.6414233,48.4094793 C34.6414233,47.6120714 34.0760523,47.290536 33.3788736,47.6914767 C32.681695,48.0929766 32.116324,49.0648524 32.116324,49.8628194" id="Fill-19" fill="#29B6F6"></path>
                <path d="M26.1788632,53.280769 C26.1788632,54.0781768 26.7442341,54.3997123 27.4414128,53.9982124 C28.1385915,53.5967125 28.7039625,52.6248367 28.7039625,51.8268697 C28.7039625,51.0294618 28.1385915,50.7079264 27.4414128,51.1094263 C26.7442341,51.5109262 26.1788632,52.4828019 26.1788632,53.280769" id="Fill-21" fill="#29B6F6"></path>
                <path d="M22.3002949,26.5810263 C22.3002949,27.4142224 22.8909057,28.429156 23.618933,28.8479908 C24.3463994,29.2673849 24.9370101,28.9318696 24.9370101,28.0986735 C24.9370101,27.2660365 24.3463994,26.2511029 23.618933,25.8317089 C22.8909057,25.4128741 22.3002949,25.7483893 22.3002949,26.5810263" id="Fill-23" fill="#26A69A"></path>
                <path d="M16.2549201,23.1010623 C16.2549201,23.9342585 16.8449699,24.949192 17.5735581,25.3680269 C18.3010245,25.7874209 18.8910744,25.4519057 18.8910744,24.6187095 C18.8910744,23.7860726 18.3010245,22.771139 17.5735581,22.351745 C16.8449699,21.9329101 16.2549201,22.2684253 16.2549201,23.1010623" id="Fill-25" fill="#26A69A"></path>
                <path d="M10.0556386,19.5326901 C10.0556386,20.3658862 10.6456885,21.3808198 11.3737158,21.7996546 C12.1017431,22.2184895 12.6917929,21.8835335 12.6917929,21.0503373 C12.6917929,20.2177003 12.1017431,19.2027668 11.3737158,18.7833727 C10.6456885,18.3645379 10.0556386,18.7000531 10.0556386,19.5326901" id="Fill-27" fill="#26A69A"></path>
                <path d="M46.7595442,30.5251196 C46.6911163,30.4859762 46.61091,30.3389087 46.61091,30.0565167 C46.61091,29.2988114 47.1931074,28.2984169 47.8566331,27.9164887 C48.0248983,27.8191893 48.1578277,27.7850786 48.24813,27.7850786 C48.2935616,27.7850786 48.3288973,27.7934665 48.3524544,27.8074463 C48.4208823,27.8465897 48.5005278,27.993098 48.5005278,28.2766084 C48.5005278,29.0343136 47.9183303,30.034149 47.2553655,30.4160772 C47.0029678,30.5614671 46.8307764,30.5659406 46.7595442,30.5251196 M50.3032086,24.4511756 C49.3194183,23.8858324 48.0624775,23.960205 46.8548944,24.6552807 C44.8441257,25.8128082 43.2686028,28.5237713 43.2686028,30.8270833 C43.2686028,32.2049325 43.8300476,33.3177247 44.8082291,33.8808311 C45.2737627,34.1486841 45.8009936,34.2806534 46.369169,34.2543714 L46.3697299,55.6289282 L39.9291001,52.4700524 L19.8932056,64.7057336 C19.5359226,64.9115162 19.3255911,64.910957 19.311569,64.9131938 C19.2852075,64.887471 19.1848093,64.7130031 19.1848093,64.3187727 L19.1848093,42.0618108 C19.8746965,41.7352426 20.6565686,41.1945039 21.5646396,40.4161086 L29.5763052,45.0283246 C30.7435046,45.6999142 31.9993236,45.77205 32.9511436,45.224601 C33.9108159,44.6721192 34.4604821,43.5828131 34.4604821,42.2368379 L34.4604821,40.0867444 L31.6560627,38.4505485 L31.6560627,42.2368379 C31.6560627,42.6170885 31.5612733,42.7865237 31.5601515,42.7977075 C31.5259376,42.807773 31.3240194,42.804977 30.9785149,42.6064638 L22.7509091,37.8706664 C21.8007718,37.3243357 20.765941,37.3808141 20.050814,38.021089 C19.0238356,38.9370456 18.3748929,39.3379863 18.0535065,39.5040663 C17.7091237,39.0209244 16.8616282,37.6917249 15.2675961,34.4333128 C14.8923648,33.6644238 14.3000714,33.0062547 13.6432764,32.6282409 L5.47400246,27.9254358 C4.38532682,27.2991407 3.39424498,25.5969601 3.39424498,24.3549946 L3.39424498,22.2345383 L0.589825504,20.5843626 L0.589825504,24.3549946 C0.589825504,26.5917627 2.118795,29.2238797 4.07179272,30.3472965 L12.2416275,35.0495425 C12.3487564,35.112172 12.5764752,35.3095668 12.746423,35.6579434 C14.9355529,40.132039 15.8739116,41.3790373 16.3803898,41.8537913 L16.3803898,64.3187727 C16.3803898,65.6748134 16.9334213,66.771389 17.8987025,67.3261075 C18.326096,67.572152 18.80453,67.6968518 19.3216649,67.6968518 C19.9655596,67.6968518 20.6543251,67.4961019 21.321216,67.1119369 L40.0693211,55.6546511 L46.4084309,58.7637589 L46.4673237,58.7928368 L46.7960016,58.7911593 C48.156706,58.7866857 49.1735885,57.3853505 49.1735885,56.1361154 L49.1735885,33.0179978 C50.7502331,31.6541284 51.8428349,29.4067355 51.8428349,27.5054826 C51.8428349,26.1276333 51.281951,25.0148412 50.3032086,24.4511756" id="Fill-29" fill="#26A69A"></path>
                <path d="M21.5181424,10.9850482 C21.5837658,10.9570886 21.944975,10.9268922 22.5630691,11.2830976 C23.8183272,12.0055737 24.7555642,13.5125963 24.7555642,14.3771072 C24.7555642,14.5303258 24.7263982,14.5957512 24.7303244,14.600784 C24.6652619,14.6287436 24.3057353,14.6600583 23.6848368,14.3027346 C22.4301396,13.5802585 21.4923417,12.0726767 21.4923417,11.2076066 C21.4923417,11.0555064 21.5215077,10.9895217 21.5181424,10.9850482 M22.4228481,16.4824652 C23.7055895,17.2200395 25.0348844,17.3302004 25.9951176,16.7782778 C26.1628219,16.6815376 26.3204303,16.5624297 26.4651383,16.4220725 L29.5421474,18.1930337 C30.6482104,18.8293942 31.6561188,20.5600936 31.6561188,21.8238677 L31.6561188,38.450884 L34.4605382,40.0865208 L34.4605382,21.8238677 C34.4605382,19.565291 32.915864,16.906892 30.9443571,15.7711729 L27.2021397,13.6171652 C26.8768271,11.910511 25.5060268,10.0713284 23.8250578,9.10336695 C22.5260507,8.35572718 21.2236783,8.24780312 20.2527883,8.80755436 C19.4367022,9.27671648 18.9683642,10.151852 18.9683642,11.2076066 C18.9683642,13.0809 20.4535847,15.3484237 22.4228481,16.4824652" id="Fill-31" fill="#29B6F6"></path>
                <g id="Group-35" transform="translate(0.376914, 0.034670)">
                    <mask id="mask-3" fill="white">
                        <use xlink:href="#path-2"></use>
                    </mask>
                    <g id="Clip-34"></g>
                    <path d="M9.62835729,5.17118439 C9.69958955,5.13595529 10.0972562,5.09569346 10.7944349,5.49831173 C12.1169991,6.25937211 13.1058374,7.81001166 13.1058374,8.68682479 C13.1058374,8.83053715 13.0783541,8.89260747 13.0822803,8.89652181 C13.0110481,8.93063253 12.6139423,8.97201274 11.9162027,8.56995365 C10.5936385,7.80777489 9.60480017,6.25713534 9.60480017,5.38032221 C9.60480017,5.23660986 9.63172259,5.17509873 9.62835729,5.17118439 L9.62835729,5.17118439 Z M3.01721882,3.90629197 C3.01721882,3.51094319 3.11817792,3.33591608 3.12210411,3.32417305 C3.15800068,3.31187082 3.36889303,3.30907486 3.72898049,3.51709431 L7.08138352,5.44686607 C7.11671921,7.32127781 8.64064075,9.58936076 10.6542139,10.7491251 C11.9908003,11.5185733 13.3632831,11.6393588 14.3476344,11.0740156 C15.1625987,10.6048535 15.629815,9.73475069 15.629815,8.68682479 C15.629815,6.79899244 14.093554,4.49120685 12.0564237,3.31914032 C10.7175938,2.54801449 9.3877381,2.42387385 8.39609537,2.97467802 L5.13119022,1.09523355 C3.94043371,0.410782479 2.70144119,0.338646704 1.73223382,0.896720369 C0.766391754,1.45255726 0.21279935,2.54969206 0.21279935,3.90629197 L0.21279935,20.5495249 L3.01721882,22.2002598 L3.01721882,3.90629197 Z" id="Fill-33" fill="#29B6F6" mask="url(#mask-3)"></path>
                </g>
            </g>
        </g>
    </g>
</svg>