<?xml version="1.0" encoding="utf-8"?>
<!-- Generator: Adobe Illustrator 15.0.0, SVG Export Plug-In . SVG Version: 6.00 Build 0)  -->
<!DOCTYPE svg PUBLIC "-//W3C//DTD SVG 1.1//EN" "http://www.w3.org/Graphics/SVG/1.1/DTD/svg11.dtd">
<svg version="1.1" id="Layer_1" xmlns="http://www.w3.org/2000/svg" xmlns:xlink="http://www.w3.org/1999/xlink" x="0px" y="0px"
	 width="303.307px" height="99.213px" viewBox="0 0 303.307 99.213" enable-background="new 0 0 303.307 99.213"
	 xml:space="preserve">
<g>
	<defs>
		<polyline id="SVGID_1_" points="5.429,49.857 5.429,5.043 300.868,5.043 300.868,49.857 		"/>
	</defs>
	<clipPath id="SVGID_2_">
		<use xlink:href="#SVGID_1_"  overflow="visible"/>
	</clipPath>
	<path clip-path="url(#SVGID_2_)" fill="#525E66" d="M7.374,7.193h16.644c4.098,0,7.324,1.127,9.374,3.173
		c1.638,1.639,2.458,3.636,2.458,6.095v0.102c0,4.047-2.149,6.3-4.713,7.732c4.15,1.589,6.712,3.998,6.712,8.809v0.104
		c0,6.555-5.326,9.833-13.419,9.833H7.374 M28.014,17.793c0-2.356-1.846-3.688-5.172-3.688h-7.785v7.579h7.271
		c3.486,0,5.686-1.125,5.686-3.79V17.793z M24.173,28.242h-9.117v7.884h9.372c3.48,0,5.583-1.228,5.583-3.891v-0.102
		C30.011,29.728,28.217,28.242,24.173,28.242"/>
	<path clip-path="url(#SVGID_2_)" fill="#525E66" d="M44.346,7.193h16.389c4.558,0,8.092,1.28,10.445,3.636
		c2,1.997,3.073,4.812,3.073,8.192v0.104c0,5.787-3.124,9.422-7.683,11.114l8.759,12.802h-9.217l-7.682-11.475h-6.198v11.475h-7.885
		 M60.219,24.605c3.841,0,6.044-2.048,6.044-5.07v-0.103c0-3.38-2.355-5.121-6.196-5.121h-7.836v10.293H60.219z"/>
	<polyline clip-path="url(#SVGID_2_)" fill="#1ABFD5" points="97.192,16.411 86.334,43.042 78.292,43.042 93.658,6.938 
		100.93,6.938 116.295,43.042 108.048,43.042 	"/>
	<polyline clip-path="url(#SVGID_2_)" fill="#525E66" points="121.816,7.193 129.09,7.193 145.888,29.266 145.888,7.193 
		153.673,7.193 153.673,43.042 146.964,43.042 129.606,20.25 129.606,43.042 121.816,43.042 	"/>
	<path clip-path="url(#SVGID_2_)" fill="#525E66" d="M160.685,25.218v-0.103c0-10.19,7.679-18.537,18.69-18.537
		c6.765,0,10.81,2.251,14.137,5.529l-5.016,5.788c-2.77-2.51-5.586-4.045-9.173-4.045c-6.041,0-10.393,5.017-10.393,11.163v0.102
		c0,6.147,4.249,11.268,10.393,11.268c4.101,0,6.608-1.639,9.428-4.199l5.017,5.071c-3.689,3.94-7.786,6.402-14.699,6.402
		C168.521,43.657,160.685,35.512,160.685,25.218"/>
	<polyline clip-path="url(#SVGID_2_)" fill="#525E66" points="200.062,7.193 207.946,7.193 207.946,21.375 222.491,21.375 
		222.491,7.193 230.379,7.193 230.379,43.042 222.491,43.042 222.491,28.65 207.946,28.65 207.946,43.042 200.062,43.042 	"/>
	<polyline clip-path="url(#SVGID_2_)" fill="#525E66" points="238.978,7.193 266.018,7.193 266.018,14.209 246.812,14.209 
		246.812,21.482 263.711,21.482 263.711,28.498 246.812,28.498 246.812,36.023 266.272,36.023 266.272,43.042 238.978,43.042 	"/>
	<polyline clip-path="url(#SVGID_2_)" fill="#525E66" points="281.633,14.466 270.724,14.466 270.724,7.193 300.43,7.193 
		300.43,14.466 289.519,14.466 289.519,43.042 281.633,43.042 	"/>
</g>
<g>
	<path fill="#1ABFD5" d="M11.521,91.423c-2.23-0.765-3.98-1.799-5.25-3.102c-0.424-0.358-0.635-0.83-0.635-1.416
		c0-0.358,0.105-0.667,0.317-0.929c0.211-0.26,0.447-0.391,0.708-0.391c0.325,0,0.7,0.163,1.123,0.488
		c3.061,2.54,6.626,3.81,10.696,3.81c2.962,0,5.25-0.594,6.862-1.782s2.417-2.873,2.417-5.055c0-1.271-0.391-2.296-1.172-3.077
		c-0.781-0.782-1.775-1.393-2.979-1.832c-1.205-0.439-2.817-0.887-4.835-1.343c-2.67-0.586-4.828-1.188-6.471-1.808
		c-1.645-0.618-3.037-1.554-4.176-2.808c-1.14-1.254-1.709-2.938-1.709-5.056c0-1.921,0.513-3.622,1.538-5.104
		c1.026-1.481,2.467-2.629,4.323-3.443c1.856-0.813,3.988-1.221,6.398-1.221c2.247,0,4.363,0.366,6.35,1.099
		c1.985,0.732,3.63,1.782,4.933,3.15c0.423,0.423,0.635,0.896,0.635,1.416c0,0.358-0.106,0.668-0.318,0.928
		c-0.212,0.262-0.448,0.391-0.708,0.391c-0.326,0-0.701-0.162-1.123-0.488c-1.758-1.432-3.346-2.425-4.762-2.979
		s-3.085-0.831-5.006-0.831c-2.898,0-5.161,0.619-6.789,1.856c-1.629,1.237-2.442,2.963-2.442,5.177
		c0,1.336,0.358,2.418,1.075,3.248c0.716,0.83,1.652,1.49,2.808,1.979s2.645,0.96,4.469,1.416l1.27,0.293
		c2.638,0.651,4.721,1.254,6.252,1.808c1.53,0.554,2.824,1.408,3.883,2.563c1.058,1.156,1.587,2.711,1.587,4.665
		c0,1.855-0.513,3.509-1.539,4.957c-1.026,1.449-2.475,2.572-4.347,3.37c-1.873,0.798-4.014,1.196-6.423,1.196
		C16.071,92.57,13.751,92.188,11.521,91.423z"/>
</g>
<g>
	<path fill="#1ABFD5" d="M49.104,91.203c0,0.391-0.146,0.7-0.439,0.928s-0.765,0.325-1.417,0.293l-1.367-0.098
		c-2.475-0.162-4.307-0.92-5.495-2.271c-1.189-1.351-1.783-3.41-1.783-6.178V70.885h-3.712c-0.391,0-0.701-0.105-0.928-0.317
		c-0.228-0.211-0.342-0.496-0.342-0.854s0.114-0.651,0.342-0.879c0.228-0.228,0.538-0.342,0.928-0.342h3.712v-6.057
		c0-0.488,0.129-0.862,0.391-1.123c0.26-0.261,0.618-0.391,1.075-0.391c0.456,0,0.822,0.13,1.099,0.391
		c0.276,0.261,0.415,0.635,0.415,1.123v6.057h5.91c0.422,0,0.749,0.114,0.977,0.342c0.228,0.228,0.342,0.521,0.342,0.879
		s-0.114,0.644-0.342,0.854c-0.228,0.212-0.554,0.317-0.977,0.317h-5.91v13.139c0,2.02,0.391,3.46,1.172,4.322
		c0.781,0.863,2.002,1.36,3.663,1.489l1.319,0.098C48.648,90.03,49.104,90.454,49.104,91.203z"/>
</g>
<g>
	<path fill="#1ABFD5" d="M57.578,91.008c-1.645-1.009-2.923-2.442-3.834-4.298c-0.912-1.856-1.368-4.021-1.368-6.496
		s0.456-4.64,1.368-6.496c0.911-1.855,2.189-3.288,3.834-4.298c1.644-1.009,3.557-1.515,5.739-1.515
		c2.149,0,4.054,0.506,5.714,1.515c1.661,1.01,2.938,2.442,3.834,4.298c0.896,1.856,1.343,4.021,1.343,6.496
		s-0.448,4.64-1.343,6.496c-0.896,1.855-2.173,3.289-3.834,4.298c-1.661,1.01-3.565,1.514-5.714,1.514
		C61.135,92.521,59.222,92.018,57.578,91.008z M69.08,87.394c1.368-1.661,2.051-4.054,2.051-7.18c0-3.061-0.692-5.446-2.076-7.155
		c-1.384-1.71-3.296-2.564-5.739-2.564c-2.475,0-4.396,0.854-5.763,2.564c-1.368,1.709-2.051,4.095-2.051,7.155
		c0,3.126,0.667,5.519,2.002,7.18c1.335,1.66,3.255,2.49,5.763,2.49C65.775,89.884,67.713,89.054,69.08,87.394z"/>
</g>
<g>
	<path fill="#1ABFD5" d="M93.354,68.248c0.26,0.195,0.391,0.521,0.391,0.977c0,0.814-0.488,1.27-1.465,1.367l-1.465,0.146
		c-2.312,0.229-4.029,1.059-5.152,2.491c-1.124,1.433-1.685,3.109-1.685,5.03v12.65c0,0.488-0.131,0.862-0.391,1.123
		c-0.261,0.26-0.619,0.391-1.075,0.391c-0.457,0-0.823-0.131-1.099-0.391c-0.277-0.261-0.415-0.635-0.415-1.123V69.518
		c0-0.488,0.138-0.862,0.415-1.123c0.276-0.261,0.643-0.392,1.099-0.392c0.423,0,0.765,0.131,1.025,0.392
		c0.26,0.261,0.391,0.618,0.391,1.074v3.175c1.334-2.8,3.81-4.33,7.424-4.592l0.684-0.049
		C92.654,67.972,93.093,68.052,93.354,68.248z"/>
</g>
<g>
	<path fill="#1ABFD5" d="M116.48,87.467c0.211,0.244,0.317,0.529,0.317,0.854c0,0.717-0.554,1.416-1.66,2.101
		c-2.345,1.399-4.819,2.1-7.424,2.1c-3.614,0-6.464-1.091-8.547-3.272c-2.084-2.181-3.126-5.177-3.126-8.986
		c0-2.442,0.464-4.599,1.392-6.472c0.928-1.872,2.23-3.321,3.907-4.347c1.677-1.025,3.606-1.539,5.788-1.539
		c3.061,0,5.478,0.985,7.253,2.955c1.774,1.971,2.662,4.682,2.662,8.132c0,0.587-0.131,1.019-0.391,1.295
		c-0.261,0.276-0.684,0.415-1.27,0.415H99.118c0.098,2.996,0.879,5.274,2.344,6.838c1.465,1.562,3.533,2.344,6.203,2.344
		c1.399,0,2.572-0.187,3.516-0.562c0.944-0.374,1.954-0.87,3.028-1.489c0.716-0.488,1.221-0.732,1.514-0.732
		S116.269,87.223,116.48,87.467z M101.657,72.497c-1.367,1.433-2.182,3.436-2.442,6.007h15.092
		c-0.065-2.604-0.716-4.615-1.954-6.031c-1.238-1.417-2.979-2.125-5.226-2.125C104.848,70.348,103.025,71.064,101.657,72.497z"/>
</g>
</svg>
