<?xml version="1.0" encoding="UTF-8"?>
<svg xmlns="http://www.w3.org/2000/svg" xmlns:xlink="http://www.w3.org/1999/xlink" width="150px" height="49px" viewBox="0 0 149 49" version="1.1">
<defs>
<clipPath id="clip1">
  <path d="M 133 3 L 147.953125 3 L 147.953125 22 L 133 22 Z M 133 3 "/>
</clipPath>
</defs>
<g id="surface1">
<path style=" stroke:none;fill-rule:nonzero;fill:rgb(32.156863%,36.862745%,40%);fill-opacity:1;" d="M 3.625 3.558594 L 11.8125 3.558594 C 13.824219 3.558594 15.414062 4.117188 16.421875 5.128906 C 17.226562 5.941406 17.628906 6.929688 17.628906 8.148438 L 17.628906 8.199219 C 17.628906 10.199219 16.574219 11.316406 15.3125 12.023438 C 17.351562 12.8125 18.613281 14.003906 18.613281 16.386719 L 18.613281 16.4375 C 18.613281 19.679688 15.992188 21.304688 12.011719 21.304688 L 3.625 21.304688 M 13.777344 8.804688 C 13.777344 7.640625 12.867188 6.980469 11.234375 6.980469 L 7.402344 6.980469 L 7.402344 10.734375 L 10.980469 10.734375 C 12.695312 10.734375 13.777344 10.175781 13.777344 8.855469 Z M 11.886719 13.976562 L 7.402344 13.976562 L 7.402344 17.878906 L 12.011719 17.878906 C 13.722656 17.878906 14.757812 17.273438 14.757812 15.953125 L 14.757812 15.902344 C 14.757812 14.714844 13.875 13.976562 11.886719 13.976562 "/>
<path style=" stroke:none;fill-rule:nonzero;fill:rgb(32.156863%,36.862745%,40%);fill-opacity:1;" d="M 21.808594 3.558594 L 29.867188 3.558594 C 32.109375 3.558594 33.84375 4.195312 35.003906 5.359375 C 35.984375 6.347656 36.515625 7.742188 36.515625 9.414062 L 36.515625 9.464844 C 36.515625 12.332031 34.976562 14.128906 32.734375 14.964844 L 37.042969 21.304688 L 32.511719 21.304688 L 28.734375 15.625 L 25.683594 15.625 L 25.683594 21.304688 L 21.808594 21.304688 M 29.613281 12.179688 C 31.5 12.179688 32.585938 11.164062 32.585938 9.667969 L 32.585938 9.617188 C 32.585938 7.945312 31.425781 7.082031 29.539062 7.082031 L 25.683594 7.082031 L 25.683594 12.179688 Z M 29.613281 12.179688 "/>
<path style=" stroke:none;fill-rule:nonzero;fill:rgb(10.196078%,74.901961%,83.529412%);fill-opacity:1;" d="M 47.792969 8.121094 L 42.453125 21.304688 L 38.5 21.304688 L 46.054688 3.433594 L 49.632812 3.433594 L 57.1875 21.304688 L 53.132812 21.304688 "/>
<path style=" stroke:none;fill-rule:nonzero;fill:rgb(32.156863%,36.862745%,40%);fill-opacity:1;" d="M 59.902344 3.558594 L 63.480469 3.558594 L 71.742188 14.484375 L 71.742188 3.558594 L 75.570312 3.558594 L 75.570312 21.304688 L 72.269531 21.304688 L 63.734375 10.023438 L 63.734375 21.304688 L 59.902344 21.304688 "/>
<path style=" stroke:none;fill-rule:nonzero;fill:rgb(32.156863%,36.862745%,40%);fill-opacity:1;" d="M 79.015625 12.480469 L 79.015625 12.429688 C 79.015625 7.386719 82.792969 3.253906 88.207031 3.253906 C 91.535156 3.253906 93.523438 4.371094 95.160156 5.992188 L 92.691406 8.855469 C 91.332031 7.613281 89.945312 6.855469 88.183594 6.855469 C 85.210938 6.855469 83.070312 9.339844 83.070312 12.378906 L 83.070312 12.429688 C 83.070312 15.472656 85.160156 18.007812 88.183594 18.007812 C 90.199219 18.007812 91.429688 17.195312 92.816406 15.929688 L 95.285156 18.4375 C 93.472656 20.390625 91.457031 21.609375 88.058594 21.609375 C 82.871094 21.609375 79.015625 17.578125 79.015625 12.480469 "/>
<path style=" stroke:none;fill-rule:nonzero;fill:rgb(32.156863%,36.862745%,40%);fill-opacity:1;" d="M 98.378906 3.558594 L 102.257812 3.558594 L 102.257812 10.578125 L 109.410156 10.578125 L 109.410156 3.558594 L 113.289062 3.558594 L 113.289062 21.304688 L 109.410156 21.304688 L 109.410156 14.179688 L 102.257812 14.179688 L 102.257812 21.304688 L 98.378906 21.304688 "/>
<path style=" stroke:none;fill-rule:nonzero;fill:rgb(32.156863%,36.862745%,40%);fill-opacity:1;" d="M 117.515625 3.558594 L 130.8125 3.558594 L 130.8125 7.03125 L 121.371094 7.03125 L 121.371094 10.632812 L 129.679688 10.632812 L 129.679688 14.105469 L 121.371094 14.105469 L 121.371094 17.828125 L 130.9375 17.828125 L 130.9375 21.304688 L 117.515625 21.304688 "/>
<g clip-path="url(#clip1)" clip-rule="nonzero">
<path style=" stroke:none;fill-rule:nonzero;fill:rgb(32.156863%,36.862745%,40%);fill-opacity:1;" d="M 138.492188 7.160156 L 133.128906 7.160156 L 133.128906 3.558594 L 147.734375 3.558594 L 147.734375 7.160156 L 142.371094 7.160156 L 142.371094 21.304688 L 138.492188 21.304688 "/>
</g>
<path style=" stroke:none;fill-rule:nonzero;fill:rgb(10.196078%,74.901961%,83.529412%);fill-opacity:1;" d="M 5.664062 45.25 C 4.570312 44.871094 3.707031 44.359375 3.082031 43.714844 C 2.875 43.539062 2.773438 43.304688 2.773438 43.011719 C 2.773438 42.835938 2.824219 42.683594 2.925781 42.554688 C 3.03125 42.425781 3.148438 42.359375 3.277344 42.359375 C 3.433594 42.359375 3.621094 42.441406 3.828125 42.601562 C 5.332031 43.859375 7.085938 44.488281 9.085938 44.488281 C 10.542969 44.488281 11.667969 44.195312 12.460938 43.605469 C 13.253906 43.015625 13.652344 42.183594 13.652344 41.105469 C 13.652344 40.472656 13.457031 39.96875 13.074219 39.582031 C 12.691406 39.195312 12.203125 38.890625 11.609375 38.675781 C 11.015625 38.457031 10.222656 38.234375 9.230469 38.007812 C 7.917969 37.71875 6.859375 37.421875 6.050781 37.113281 C 5.242188 36.808594 4.554688 36.34375 3.996094 35.722656 C 3.433594 35.105469 3.15625 34.269531 3.15625 33.222656 C 3.15625 32.269531 3.40625 31.429688 3.910156 30.695312 C 4.417969 29.960938 5.125 29.394531 6.039062 28.992188 C 6.949219 28.589844 8 28.386719 9.183594 28.386719 C 10.289062 28.386719 11.328125 28.570312 12.304688 28.929688 C 13.28125 29.292969 14.089844 29.8125 14.730469 30.492188 C 14.941406 30.699219 15.042969 30.933594 15.042969 31.191406 C 15.042969 31.367188 14.992188 31.523438 14.886719 31.652344 C 14.785156 31.78125 14.667969 31.84375 14.539062 31.84375 C 14.378906 31.84375 14.195312 31.765625 13.988281 31.601562 C 13.125 30.894531 12.34375 30.402344 11.644531 30.128906 C 10.949219 29.855469 10.128906 29.714844 9.183594 29.714844 C 7.757812 29.714844 6.644531 30.023438 5.847656 30.636719 C 5.042969 31.246094 4.644531 32.101562 4.644531 33.199219 C 4.644531 33.859375 4.820312 34.394531 5.171875 34.804688 C 5.527344 35.214844 5.984375 35.542969 6.554688 35.785156 C 7.121094 36.027344 7.855469 36.261719 8.753906 36.484375 L 9.375 36.628906 C 10.675781 36.953125 11.699219 37.25 12.449219 37.527344 C 13.203125 37.800781 13.839844 38.222656 14.359375 38.792969 C 14.878906 39.367188 15.140625 40.136719 15.140625 41.101562 C 15.140625 42.019531 14.890625 42.839844 14.382812 43.554688 C 13.878906 44.273438 13.167969 44.828125 12.246094 45.222656 C 11.324219 45.621094 10.273438 45.816406 9.089844 45.816406 C 7.902344 45.816406 6.761719 45.628906 5.664062 45.25 Z M 5.664062 45.25 "/>
<path style=" stroke:none;fill-rule:nonzero;fill:rgb(10.196078%,74.901961%,83.529412%);fill-opacity:1;" d="M 24.148438 45.140625 C 24.148438 45.335938 24.074219 45.488281 23.929688 45.601562 C 23.785156 45.714844 23.554688 45.761719 23.234375 45.746094 L 22.5625 45.695312 C 21.34375 45.617188 20.445312 45.242188 19.859375 44.574219 C 19.273438 43.902344 18.984375 42.886719 18.984375 41.515625 L 18.984375 35.085938 L 17.15625 35.085938 C 16.964844 35.085938 16.8125 35.03125 16.703125 34.925781 C 16.589844 34.824219 16.53125 34.683594 16.53125 34.503906 C 16.53125 34.328125 16.589844 34.183594 16.703125 34.070312 C 16.8125 33.957031 16.964844 33.902344 17.15625 33.902344 L 18.984375 33.902344 L 18.984375 30.902344 C 18.984375 30.660156 19.046875 30.476562 19.175781 30.347656 C 19.304688 30.21875 19.480469 30.152344 19.703125 30.152344 C 19.929688 30.152344 20.109375 30.21875 20.246094 30.347656 C 20.378906 30.476562 20.449219 30.660156 20.449219 30.902344 L 20.449219 33.902344 L 23.355469 33.902344 C 23.5625 33.902344 23.722656 33.957031 23.835938 34.070312 C 23.945312 34.183594 24.003906 34.328125 24.003906 34.503906 C 24.003906 34.683594 23.945312 34.824219 23.835938 34.925781 C 23.722656 35.03125 23.5625 35.085938 23.355469 35.085938 L 20.449219 35.085938 L 20.449219 41.585938 C 20.449219 42.585938 20.640625 43.300781 21.023438 43.726562 C 21.410156 44.152344 22.007812 44.398438 22.824219 44.464844 L 23.476562 44.511719 C 23.921875 44.558594 24.148438 44.769531 24.148438 45.140625 Z M 24.148438 45.140625 "/>
<path style=" stroke:none;fill-rule:nonzero;fill:rgb(10.196078%,74.901961%,83.529412%);fill-opacity:1;" d="M 28.3125 45.042969 C 27.503906 44.546875 26.875 43.835938 26.429688 42.917969 C 25.980469 42 25.753906 40.925781 25.753906 39.703125 C 25.753906 38.476562 25.980469 37.40625 26.429688 36.488281 C 26.875 35.570312 27.503906 34.859375 28.3125 34.359375 C 29.121094 33.859375 30.0625 33.609375 31.136719 33.609375 C 32.191406 33.609375 33.128906 33.859375 33.945312 34.359375 C 34.761719 34.859375 35.390625 35.566406 35.832031 36.488281 C 36.273438 37.40625 36.492188 38.476562 36.492188 39.703125 C 36.492188 40.925781 36.269531 42 35.832031 42.917969 C 35.390625 43.835938 34.761719 44.546875 33.945312 45.042969 C 33.128906 45.542969 32.191406 45.792969 31.136719 45.792969 C 30.0625 45.792969 29.121094 45.542969 28.3125 45.042969 Z M 33.96875 43.253906 C 34.644531 42.433594 34.980469 41.25 34.980469 39.703125 C 34.980469 38.1875 34.636719 37.007812 33.957031 36.160156 C 33.277344 35.3125 32.335938 34.890625 31.136719 34.890625 C 29.917969 34.890625 28.972656 35.3125 28.300781 36.160156 C 27.628906 37.007812 27.292969 38.1875 27.292969 39.703125 C 27.292969 41.25 27.621094 42.433594 28.277344 43.253906 C 28.933594 44.078125 29.878906 44.488281 31.113281 44.488281 C 32.34375 44.488281 33.296875 44.078125 33.96875 43.253906 Z M 33.96875 43.253906 "/>
<path style=" stroke:none;fill-rule:nonzero;fill:rgb(10.196078%,74.901961%,83.529412%);fill-opacity:1;" d="M 45.90625 33.78125 C 46.035156 33.875 46.097656 34.039062 46.097656 34.261719 C 46.097656 34.664062 45.859375 34.890625 45.378906 34.941406 L 44.65625 35.011719 C 43.519531 35.125 42.675781 35.535156 42.125 36.246094 C 41.570312 36.953125 41.296875 37.785156 41.296875 38.734375 L 41.296875 44.996094 C 41.296875 45.238281 41.230469 45.421875 41.105469 45.550781 C 40.976562 45.679688 40.800781 45.746094 40.574219 45.746094 C 40.351562 45.746094 40.171875 45.679688 40.035156 45.550781 C 39.898438 45.421875 39.832031 45.238281 39.832031 44.996094 L 39.832031 34.40625 C 39.832031 34.167969 39.898438 33.980469 40.035156 33.851562 C 40.171875 33.722656 40.351562 33.65625 40.574219 33.65625 C 40.785156 33.65625 40.953125 33.722656 41.078125 33.851562 C 41.207031 33.980469 41.273438 34.15625 41.273438 34.382812 L 41.273438 35.957031 C 41.925781 34.570312 43.144531 33.8125 44.921875 33.683594 L 45.257812 33.65625 C 45.5625 33.644531 45.777344 33.683594 45.90625 33.78125 Z M 45.90625 33.78125 "/>
<path style=" stroke:none;fill-rule:nonzero;fill:rgb(10.196078%,74.901961%,83.529412%);fill-opacity:1;" d="M 57.277344 43.292969 C 57.382812 43.414062 57.433594 43.554688 57.433594 43.714844 C 57.433594 44.070312 57.164062 44.414062 56.617188 44.753906 C 55.464844 45.445312 54.25 45.792969 52.96875 45.792969 C 51.191406 45.792969 49.789062 45.253906 48.765625 44.175781 C 47.738281 43.09375 47.226562 41.613281 47.226562 39.726562 C 47.226562 38.519531 47.457031 37.449219 47.910156 36.523438 C 48.367188 35.597656 49.007812 34.878906 49.832031 34.371094 C 50.65625 33.863281 51.605469 33.609375 52.679688 33.609375 C 54.183594 33.609375 55.375 34.097656 56.246094 35.074219 C 57.117188 36.046875 57.554688 37.390625 57.554688 39.097656 C 57.554688 39.386719 57.492188 39.601562 57.363281 39.738281 C 57.234375 39.875 57.027344 39.945312 56.738281 39.945312 L 48.742188 39.945312 C 48.789062 41.425781 49.171875 42.554688 49.894531 43.328125 C 50.613281 44.101562 51.632812 44.488281 52.945312 44.488281 C 53.632812 44.488281 54.207031 44.394531 54.671875 44.210938 C 55.136719 44.023438 55.632812 43.78125 56.164062 43.472656 C 56.515625 43.230469 56.761719 43.109375 56.90625 43.109375 C 57.050781 43.109375 57.175781 43.171875 57.277344 43.292969 Z M 49.988281 35.882812 C 49.316406 36.589844 48.917969 37.582031 48.789062 38.855469 L 56.210938 38.855469 C 56.179688 37.566406 55.859375 36.570312 55.25 35.871094 C 54.640625 35.167969 53.785156 34.820312 52.679688 34.820312 C 51.558594 34.820312 50.664062 35.171875 49.988281 35.882812 Z M 49.988281 35.882812 "/>
</g>
</svg>
