<svg xmlns="http://www.w3.org/2000/svg" xmlns:xlink="http://www.w3.org/1999/xlink" width="163" height="70" viewBox="0 0 163 70">
    <defs>
        <path id="prefix__a" d="M0.151 0.377L24.235 0.377 24.235 32.723 0.151 32.723z"/>
    </defs>
    <g fill="none" fill-rule="evenodd">
        <path fill="#29B6F6" d="M5.139 42.117c0 1.407.535 1.945 1.96 1.945h2.199l.296 1.945c-.95.269-2.554.388-3.267.388-2.436 0-3.713-1.406-3.713-3.949v-8.884H0v-1.855l2.614-.12V27.25h2.525v4.308h4.604v2.004H5.14v8.555zM13.865 40.083c.268 3.47 1.604 4.248 4.575 4.248 1.545 0 3.07-.15 4.556-.359l.267 1.705c-1.366.569-3.487.808-5.15.808-4.99 0-6.921-2.094-6.921-7.688 0-5.714 1.749-7.598 6.412-7.598 4.367 0 5.986 1.615 5.986 4.756.03 2.602-1.04 4.128-3.446 4.128h-4.483l.022-1.974h3.808c1.307 0 1.574-1.077 1.574-2.154-.03-1.855-.758-2.603-3.342-2.603-3.03 0-3.798 1.077-3.887 4.757l.03 1.974zM35.239 42.028v-2.932h-5.12c-1.397.06-1.872.778-1.872 2.004v.928c0 1.525.683 2.183 2.257 2.183.825.018 1.879-.215 2.942-.704l.436 1.819c-1.086.61-2.416 1.07-3.883 1.07-2.584 0-4.336-1.436-4.336-4.07v-1.584c0-2.274 1.485-3.59 4.01-3.59h5.566v-1.287c0-1.795-.654-2.513-2.941-2.513-1.515 0-3.546.18-5.745.389l-.237-1.885c1.99-.329 4.348-.657 6.516-.657 3.209 0 4.961 1.136 4.961 4.666v10.26h-1.99l-.564-4.097zM43.609 33.86c1.99-1.734 3.427-2.661 5.447-2.661 1.96 0 3.238.867 3.654 2.572 1.99-1.735 3.397-2.572 5.358-2.572 2.495 0 3.861 1.376 3.861 4.008v10.919h-2.495v-10.2c-.03-1.796-.654-2.574-2.258-2.574-1.485 0-2.09.658-4.288 2.274v10.5h-2.436v-10.2c0-1.886-.743-2.574-2.257-2.574-1.456 0-2.061.629-4.29 2.244v10.53h-2.524V31.558h2.08l.148 2.303zM64.898 25.185c.683 0 .92.24.92.898v1.72c0 .921-.314 1.618-.505 2.524-.08.38-.412.652-.798.652-.388 0-.723-.276-.799-.66-.18-.904-.478-1.586-.512-2.516v-1.72c.03-.658.297-.898.95-.898h.744z" transform="translate(9.314 10.5)"/>
        <path fill="#26A69A" d="M77.58 42.267V34.22c-1.694-.48-2.936-.808-4.45-.808-2.496 0-3.476 1.047-3.476 5.355 0 4.308.98 5.504 3.327 5.504.926 0 1.662-.2 2.495-.638l.396 1.839c-1.12.618-2.373 1.013-3.723 1.013-3.654 0-5.08-2.603-5.08-7.688 0-5.684 1.753-7.599 5.466-7.599 1.782 0 3.697.533 5.044 1.347v-7.359h2.501v20.94h-2.02l-.48-3.86zM85.313 38.857c0 4.248 1.01 5.504 4.159 5.504 3.148 0 4.188-1.256 4.188-5.504 0-4.248-1.04-5.505-4.188-5.505-3.15 0-4.16 1.257-4.16 5.505m10.962 0c0 5.594-1.812 7.658-6.802 7.658-4.961 0-6.803-2.064-6.803-7.658 0-5.564 1.842-7.658 6.803-7.658 4.99 0 6.802 2.094 6.802 7.658M110.407 45.737c-1.456.509-3.267.748-4.96.748-4.991 0-6.863-2.034-6.863-7.658 0-5.624 1.872-7.628 6.892-7.628 1.278 0 3.238.15 4.664.688l-.327 1.645c-1.307-.12-2.911-.18-3.92-.18-3.447 0-4.635 1.227-4.635 5.475 0 4.278 1.188 5.504 4.634 5.504.862 0 2.762-.06 4.248-.3l.267 1.706z" transform="translate(9.314 10.5)"/>
        <path fill="#29B6F6" d="M134.366 33.42c0 .573.402.804.897.516.496-.289.898-.987.898-1.56 0-.572-.402-.804-.898-.515-.495.288-.897.986-.897 1.56M130.249 35.814c0 .573.402.804.897.515.496-.288.898-.986.898-1.559s-.402-.804-.898-.516c-.495.289-.897.987-.897 1.56M126.027 38.269c0 .573.402.804.898.515.495-.288.897-.986.897-1.56 0-.572-.402-.803-.897-.515-.496.289-.898.987-.898 1.56" transform="translate(9.314 10.5)"/>
        <g transform="translate(9.314 10.5) translate(107.68 .025)">
            <mask id="prefix__b" fill="#fff">
                <use xlink:href="#prefix__a"/>
            </mask>
            <path fill="#29B6F6" d="M7.675 3.95c.94.546 1.644 1.66 1.644 2.29 0 .102-.02.147-.017.15-.05.024-.333.054-.829-.235-.94-.547-1.643-1.66-1.643-2.29 0-.104.019-.148.016-.15.05-.026.334-.055.83.234m9.64 6.513c-.045.02-.302.043-.743-.214-.892-.519-1.559-1.602-1.559-2.223 0-.11.02-.157.018-.16.047-.02.304-.042.744.214.892.52 1.559 1.602 1.559 2.222 0 .11-.021.157-.019.161m4.419.84l-2.661-1.546c-.231-1.226-1.206-2.547-2.4-3.242-.925-.537-1.851-.615-2.541-.213-.58.337-.914.966-.914 1.724 0 1.345 1.056 2.974 2.457 3.789.912.53 1.857.609 2.54.212.12-.07.231-.155.334-.256l2.188 1.272c.787.457 1.503 1.7 1.503 2.608v14.662c0 .273-.067.395-.068.402-.025.008-.168.006-.414-.137l-5.85-3.401c-.676-.393-1.411-.352-1.92.108-.73.658-1.192.946-1.42 1.065-.245-.347-.847-1.302-1.981-3.642-.267-.553-.688-1.025-1.155-1.296l-5.809-3.379c-.774-.45-1.479-1.672-1.479-2.564V2.806c0-.284.072-.41.075-.418.026-.01.175-.011.432.139l2.383 1.385c.025 1.346 1.109 2.976 2.54 3.809.951.552 1.927.639 2.627.233.58-.337.912-.962.912-1.715 0-1.356-1.093-3.013-2.541-3.855-.952-.554-1.898-.643-2.603-.247L3.65.787C2.802.295 1.92.243 1.232.644c-.687.4-1.08 1.187-1.08 2.162v14.662c0 1.607 1.087 3.497 2.475 4.304l5.81 3.378c.076.044.237.186.359.437 2.02 4.172 2.578 4.496 2.878 4.67.543.316 1.419.454 3.391-1.253l5.697 3.313c.458.266.939.406 1.39.406.367 0 .706-.09 1.01-.266.682-.396 1.073-1.179 1.073-2.145V15.65c0-1.622-1.098-3.532-2.5-4.347" mask="url(#prefix__b)"/>
        </g>
        <path fill="#26A69A" d="M123.269 19.092c0 .598.42 1.327.938 1.628.517.301.937.06.937-.538 0-.598-.42-1.327-.937-1.628-.518-.301-.938-.06-.938.538M118.97 16.592c0 .599.42 1.328.938 1.629.517.3.937.06.937-.539 0-.598-.42-1.327-.937-1.628-.518-.3-.938-.06-.938.538M114.562 14.03c0 .598.42 1.327.938 1.628.517.3.937.06.937-.539 0-.598-.42-1.327-.937-1.628-.518-.3-.938-.06-.938.538" transform="translate(9.314 10.5)"/>
        <path fill="#26A69A" d="M140.66 21.925c-.048-.028-.105-.134-.105-.337 0-.544.414-1.263.886-1.537.12-.07.214-.094.278-.094.032 0 .058.006.074.016.049.028.106.133.106.337 0 .544-.414 1.262-.886 1.536-.18.105-.302.108-.352.079m2.52-4.363c-.7-.406-1.594-.353-2.453.147-1.43.831-2.55 2.778-2.55 4.433 0 .99.4 1.788 1.095 2.193.331.192.706.287 1.11.268v15.352l-4.58-2.268-14.246 8.788c-.254.148-.403.147-.413.149-.019-.019-.09-.144-.09-.427V30.21c.49-.235 1.046-.623 1.692-1.182l5.697 3.313c.83.482 1.722.534 2.4.14.682-.396 1.072-1.179 1.072-2.145v-1.545l-1.994-1.175v2.72c0 .273-.067.394-.068.402-.024.008-.168.006-.413-.137l-5.85-3.401c-.676-.393-1.412-.352-1.92.108-.73.658-1.192.945-1.42 1.065-.246-.347-.848-1.302-1.982-3.642-.266-.553-.688-1.025-1.155-1.297l-5.808-3.378c-.774-.45-1.48-1.672-1.48-2.564V15.97l-1.993-1.185v2.708c0 1.607 1.087 3.497 2.476 4.304l5.809 3.377c.076.045.238.187.359.437 1.556 3.214 2.223 4.11 2.584 4.45v16.136c0 .974.393 1.762 1.08 2.16.303.177.643.266 1.011.266.458 0 .948-.144 1.422-.42l13.33-8.23 4.508 2.234.042.02h.234c.967-.003 1.69-1.01 1.69-1.907V23.715c1.121-.98 1.898-2.594 1.898-3.96 0-.989-.399-1.788-1.095-2.193" transform="translate(9.314 10.5)"/>
    </g>
</svg>
