<svg xmlns="http://www.w3.org/2000/svg" xmlns:xlink="http://www.w3.org/1999/xlink" width="309" height="188" viewBox="0 0 309 188">
    <defs>
        <linearGradient id="c" x1="100%" x2="0%" y1="0%" y2="100%">
            <stop offset="0%" stop-color="#AFAFAF"/>
            <stop offset="100%" stop-color="#263238"/>
        </linearGradient>
        <path id="b" d="M155.141 35.045l11.798 88.612-78.35 39.997-62.056-62.056 39.997-78.35z"/>
        <filter id="a" width="165.5%" height="165.5%" x="-27.1%" y="-27.1%" filterUnits="objectBoundingBox">
            <feOffset dx="8" dy="8" in="SourceAlpha" result="shadowOffsetOuter1"/>
            <feGaussianBlur in="shadowOffsetOuter1" result="shadowBlurOuter1" stdDeviation="14"/>
            <feColorMatrix in="shadowBlurOuter1" values="0 0 0 0 0.784313725 0 0 0 0 0.780392157 0 0 0 0 0.8 0 0 0 0.55 0"/>
        </filter>
    </defs>
    <g fill="none" fill-rule="evenodd" transform="translate(46 14)">
        <circle cx="127" cy="82" r="74" stroke="#F5F5F5" stroke-opacity=".55" stroke-width="2"/>
        <path fill="#FFF" stroke="#C8C7CC" stroke-opacity=".2" stroke-width="2" d="M26.312 152.25l14.188-4.886-.262-15.002-14.35-4.387-8.606 12.291 9.03 11.983z"/>
        <path fill="#C8C7CC" fill-opacity=".55" d="M181 141.105l-4.246 5.633-6.669-2.297.123-7.052 6.745-2.062z"/>
        <path fill="#FFF" stroke="#C8C7CC" stroke-opacity=".2" stroke-width="2" d="M146.27 17.425l-8.63-2.972.16-9.125 8.728-2.669 5.235 7.476-5.493 7.29z"/>
        <path fill="#C8C7CC" fill-opacity=".55" d="M26.222 20.89l-1.648 13.42-13.27 2.579-6.555-11.824 9.22-9.887z" opacity=".5"/>
        <use fill="#000" filter="url(#a)" xlink:href="#b"/>
        <use fill="url(#c)" xlink:href="#b"/>
        <g stroke="#FFF" stroke-linecap="round" stroke-linejoin="round" stroke-width="2">
            <path d="M108.444 72H84.556C79.279 72 75 76.366 75 81.75v9.75c0 5.387 4.279 9.75 9.556 9.75h3.583V111l9.555-9.75h10.75c5.278 0 9.556-4.363 9.556-9.75M102 109.8c0 3.314 2.704 6 6.042 6h6.041l7.25 7.2v-7.2h3.625c3.338 0 6.042-2.686 6.042-6V105c0-3.314-2.704-6-6.042-6"/>
        </g>
        <path stroke="#FFF" stroke-width="2" d="M124.928 80.772c-1.035 2.229-3.048 3.928-5.979 5.153-2.81-1.112-4.804-2.818-5.949-5.151v-8.552c1.201-.309 3.19-1.014 5.964-2.143 2.81 1.126 4.804 1.832 5.982 2.14.078 2.899.072 5.335-.018 8.553z"/>
        <path fill="#F5F5F5" fill-opacity=".55" fill-rule="nonzero" d="M142.442 73.207a1 1 0 0 1-.683 1.133l-.122.03-7.435.363a1 1 0 0 1-.48-1.937l.123-.03 7.434-.364a1 1 0 0 1 1.163.805zm-17.42-17.613a1 1 0 0 1 .711 1.123l-.025.114-1.13 6.787-.04.11a1 1 0 0 1-1.909-.548l.026-.114 1.13-6.787.039-.11a1 1 0 0 1 1.198-.575zM137 60.566a1 1 0 0 1 .077 1.327l-.077.087-5.762 5.762a1 1 0 0 1-1.492-1.327l.078-.088 5.761-5.761a1 1 0 0 1 1.415 0zM60.277 75.207a1 1 0 0 0 .683 1.133l.122.03 7.434.363a1 1 0 0 0 .48-1.937l-.122-.03-7.435-.364a1 1 0 0 0-1.162.805zm17.42-17.613a1 1 0 0 0-.712 1.123l.026.114 1.13 6.787.039.11a1 1 0 0 0 1.91-.548l-.026-.114-1.13-6.787-.04-.11a1 1 0 0 0-1.198-.575zM65.72 62.566a1 1 0 0 0-.078 1.327l.078.087 5.761 5.762a1 1 0 0 0 1.492-1.327l-.077-.088-5.762-5.761a1 1 0 0 0-1.414 0z"/>
    </g>
</svg>
