<svg xmlns="http://www.w3.org/2000/svg" xmlns:xlink="http://www.w3.org/1999/xlink" width="309" height="188" viewBox="0 0 309 188">
    <defs>
        <linearGradient id="c" x1="101.944%" x2="2.532%" y1="0%" y2="100%">
            <stop offset="0%" stop-color="#AFAFAF"/>
            <stop offset="100%" stop-color="#263238"/>
        </linearGradient>
        <path id="b" d="M98.336 3.17l79.353 41.162-12.176 87.122-86.427 15.24-41.24-77.704z"/>
        <filter id="a" width="165.8%" height="164.1%" x="-27.2%" y="-26.5%" filterUnits="objectBoundingBox">
            <feOffset dx="8" dy="8" in="SourceAlpha" result="shadowOffsetOuter1"/>
            <feGaussianBlur in="shadowOffsetOuter1" result="shadowBlurOuter1" stdDeviation="14"/>
            <feColorMatrix in="shadowBlurOuter1" values="0 0 0 0 0.784313725 0 0 0 0 0.780392157 0 0 0 0 0.8 0 0 0 0.55 0"/>
        </filter>
    </defs>
    <g fill="none" fill-rule="evenodd" transform="translate(40 23)">
        <circle cx="85" cy="81" r="74" stroke="#F5F5F5" stroke-opacity=".55" stroke-width="2"/>
        <path fill="#FFF" stroke="#C8C7CC" stroke-opacity=".2" stroke-width="2" d="M12.27 97.425l-8.63-2.972.16-9.125 8.728-2.669 5.235 7.476-5.493 7.29z"/>
        <path fill="#C8C7CC" fill-opacity=".55" d="M86 7.105l-4.246 5.633-6.669-2.297.123-7.052 6.745-2.062z"/>
        <path stroke="#C8C7CC" stroke-opacity=".55" stroke-width="3" d="M187.56 66.29l-22.882-9.713 2.166-24.764 24.222-5.592 12.803 21.308-16.309 18.76z" opacity=".5"/>
        <use fill="#000" filter="url(#a)" xlink:href="#b"/>
        <use fill="url(#c)" xlink:href="#b"/>
        <path stroke="#FFF" stroke-width="2" d="M129.928 95.772c-1.035 2.229-3.048 3.928-5.979 5.153-2.81-1.112-4.804-2.818-5.949-5.151v-8.552c1.201-.309 3.19-1.014 5.964-2.143 2.81 1.126 4.804 1.832 5.982 2.14.078 2.899.072 5.335-.018 8.553z"/>
        <path stroke="#FFF" stroke-linecap="round" stroke-linejoin="round" stroke-width="2" d="M124 68c0 3.312-7.612 6-17 6-9.386 0-17-2.688-17-6 0-3.314 7.614-6 17-6 9.388 0 17 2.686 17 6zM124 76c0 3.312-7.612 6-17 6-9.386 0-17-2.688-17-6M111.515 89.786c-1.438.14-2.952.214-4.515.214-9.386 0-17-2.688-17-6"/>
        <path stroke="#FFF" stroke-linecap="round" stroke-linejoin="round" stroke-width="2" d="M124 68v12m-12.459 17.783A46.857 46.857 0 0 1 107 98c-9.386 0-17-2.688-17-6V68M94 108h26M107 98v10"/>
        <path fill="#FFF" d="M86 107a1 1 0 1 0-.002 1.998A1 1 0 0 0 86 107M90 107a1 1 0 1 0-.002 1.998A1 1 0 0 0 90 107M124 107a1 1 0 1 0-.002 1.998A1 1 0 0 0 124 107"/>
        <path fill="#F5F5F5" fill-opacity=".55" fill-rule="nonzero" d="M127.57 48.47a1 1 0 0 1 .317 1.284l-.065.108-5 7.22a1 1 0 0 1-1.71-1.03l.066-.108 5-7.22a1 1 0 0 1 1.391-.253zm-42.055-.052a1 1 0 0 1 1.297.291l.063.1 4 7.22.05.105a1 1 0 0 1-1.737.963l-.063-.1-4-7.22-.05-.105a1 1 0 0 1 .44-1.254zM106.5 41a1 1 0 0 1 .993.883l.007.117v12.235a1 1 0 0 1-1.993.117l-.007-.117V42a1 1 0 0 1 1-1zM142.58 106.044a1 1 0 0 1-1.284.318l-.108-.065-5.514-5a1 1 0 0 1 1.031-1.71l.108.066 5.514 5a1 1 0 0 1 .253 1.391zm.137-24.772a1 1 0 0 1-.291 1.297l-.1.062-5.598 4-.105.051a1 1 0 0 1-.963-1.738l.099-.062 5.599-4 .105-.05a1 1 0 0 1 1.254.44zm4.953 11.985a1 1 0 0 1-.884.993l-.116.007h-8.148a1 1 0 0 1-.117-1.994l.117-.006h8.148a1 1 0 0 1 1 1z"/>
    </g>
</svg>
