<svg xmlns="http://www.w3.org/2000/svg" xmlns:xlink="http://www.w3.org/1999/xlink" width="44" height="44" viewBox="0 0 44 44">
    <defs>
        <linearGradient id="57rdoegh0b" x1="112.941%" x2="3.09%" y1="25.118%" y2="94.268%">
            <stop offset="0%" stop-color="#29B6F6"/>
            <stop offset="100%" stop-color="#26A69A"/>
        </linearGradient>
        <path id="5neekblk1a" d="M28.5 26c2.793 0 5.198 1.642 6.32 4.009C37.69 29.902 40 32.203 40 35c0 4.414-4.5 5-4.5 5H21s-4 .06-4-3.75c0-2.381 2.188-4.157 4.521-3.671C21.738 28.91 24.774 26 28.5 26zm0 1.5c-3.078 0-5.82 2.856-6 6-1.927-.417-4 1-4 2.5 0 2.361 4.014 2.492 4.46 2.5h11.067c.373-.007 4.473-.16 4.473-3.5 0-2-2.13-3.592-4.5-3.5-.927-2.028-3.193-4-5.5-4zM37 6c1.105 0 2 .895 2 2v4c0 1.105-.895 2-2 2h-1l.001 12H36c-.378-.825-.887-1.507-1.499-2.058L34.5 14h-25v17.5h5.579c-.228.467-.395.974-.49 1.5H10c-1.105 0-2-.895-2-2V14H7c-1.105 0-2-.895-2-2V8c0-1.105.895-2 2-2h30zM27 18v3H17v-3h10zM37.5 7.5h-31v5h30.998l.002-5z"/>
    </defs>
    <g fill="none" fill-rule="evenodd">
        <g>
            <g>
                <g>
                    <g transform="translate(-39 -1508) translate(0 1168) translate(39 208) translate(0 132)">
                        <use fill="url(#57rdoegh0b)" xlink:href="#5neekblk1a"/>
                    </g>
                </g>
            </g>
        </g>
    </g>
</svg>
